<svg width="24" height="24" viewBox="0 0 24 24" fill="none"
  xmlns="http://www.w3.org/2000/svg">
  <path fill-rule="evenodd" clip-rule="evenodd" d="M6 3.75C4.75736 3.75 3.75 4.75736 3.75 6V6.25H20.25V6C20.25 4.75736 19.2426 3.75 18 3.75H6ZM21.75 6C21.75 3.92893 20.0711 2.25 18 2.25H6C3.92893 2.25 2.25 3.92893 2.25 6V14C2.25 16.0711 3.92893 17.75 6 17.75H10C10.4142 17.75 10.75 17.4142 10.75 17C10.75 16.5858 10.4142 16.25 10 16.25H6C4.75736 16.25 3.75 15.2426 3.75 14V7.75H20.25V10C20.25 10.4142 20.5858 10.75 21 10.75C21.4142 10.75 21.75 10.4142 21.75 10V6ZM5.729 11C5.729 10.5858 6.06479 10.25 6.479 10.25H9C9.41421 10.25 9.75 10.5858 9.75 11C9.75 11.4142 9.41421 11.75 9 11.75H6.479C6.06479 11.75 5.729 11.4142 5.729 11ZM18.8285 13.8948C18.2921 13.7017 17.7051 13.7017 17.1687 13.8949L15.1356 14.6268C14.9043 14.7102 14.7499 14.9298 14.75 15.1757V17.4425C14.75 17.934 15.1072 18.4788 15.7941 19.0316C16.4512 19.5605 17.2509 19.9666 17.7734 20.2007L17.7753 20.2016C17.9182 20.2661 18.0818 20.2661 18.2247 20.2016L18.2266 20.2007C18.7495 19.9664 19.549 19.5609 20.2061 19.0324C20.8925 18.4803 21.25 17.9355 21.25 17.4425V15.1765C21.2498 14.9307 21.0956 14.7114 20.8644 14.6281L18.8285 13.8948C18.8285 13.8948 18.8285 13.8948 18.8285 13.8948ZM16.6606 12.4835C17.5255 12.1721 18.4719 12.1721 19.3367 12.4835L21.3728 13.2169C22.1985 13.5144 22.7493 14.2976 22.75 15.1753V17.4425C22.75 18.6469 21.9201 19.5787 21.1462 20.2012C20.3435 20.8469 19.4105 21.3139 18.8413 21.569C18.3064 21.8103 17.6936 21.8103 17.1587 21.569C16.5891 21.3137 15.6562 20.8461 14.8536 20.2001C14.0801 19.5776 13.25 18.6457 13.25 17.4425V15.176C13.25 15.176 13.25 15.1761 13.25 15.176C13.2499 14.2976 13.8007 13.5134 14.6271 13.2156L16.6606 12.4835ZM19.7803 15.4697C20.0732 15.7626 20.0732 16.2374 19.7803 16.5303L18.2803 18.0303C17.9874 18.3232 17.5126 18.3232 17.2197 18.0303L16.2197 17.0303C15.9268 16.7374 15.9268 16.2626 16.2197 15.9697C16.5126 15.6768 16.9874 15.6768 17.2803 15.9697L17.75 16.4393L18.7197 15.4697C19.0126 15.1768 19.4874 15.1768 19.7803 15.4697Z" fill="white"/>
</svg>
