<svg width="20" height="21" viewBox="0 0 20 21" fill="none"
  xmlns="http://www.w3.org/2000/svg">
  <path d="M13.0932 0.600006V4.23637" stroke="#1D2452" stroke-width="1.2" stroke-linecap="round" stroke-linejoin="round"/>
  <path d="M5.81783 0.600006V4.23637" stroke="#1D2452" stroke-width="1.2" stroke-linecap="round" stroke-linejoin="round"/>
  <path d="M1.27344 6.96555H17.6371" stroke="#1D2452" stroke-width="1.2" stroke-linecap="round" stroke-linejoin="round"/>
  <path fill-rule="evenodd" clip-rule="evenodd" d="M15.8189 2.4192H3.09162C2.08707 2.4192 1.27344 3.23284 1.27344 4.23739V16.0556C1.27344 17.0601 2.08707 17.8738 3.09162 17.8738H15.8189C16.8234 17.8738 17.6371 17.0601 17.6371 16.0556V4.23739C17.6371 3.23284 16.8234 2.4192 15.8189 2.4192Z" stroke="#1D2452" stroke-width="1.2" stroke-linecap="round" stroke-linejoin="round"/>
  <path d="M9.46731 10.3556C9.34186 10.3556 9.24004 10.4574 9.24095 10.5829C9.24095 10.7083 9.34277 10.8101 9.46822 10.8101C9.59367 10.8101 9.69549 10.7083 9.69549 10.5829C9.69549 10.4574 9.59367 10.3556 9.46731 10.3556" stroke="#1D2452" stroke-width="1.2" stroke-linecap="round" stroke-linejoin="round"/>
  <path d="M4.92239 10.3556C4.79693 10.3556 4.69512 10.4574 4.69603 10.5829C4.69603 10.7083 4.79784 10.8101 4.9233 10.8101C5.04875 10.8101 5.15057 10.7083 5.15057 10.5829C5.15057 10.4574 5.04875 10.3556 4.92239 10.3556" stroke="#1D2452" stroke-width="1.2" stroke-linecap="round" stroke-linejoin="round"/>
  <path d="M14.0122 10.3557C13.8868 10.3557 13.785 10.4576 13.7859 10.583C13.7859 10.7085 13.8877 10.8103 14.0131 10.8103C14.1386 10.8103 14.2404 10.7085 14.2404 10.583C14.2404 10.4576 14.1386 10.3557 14.0122 10.3557" stroke="#1D2452" stroke-width="1.2" stroke-linecap="round" stroke-linejoin="round"/>
  <path d="M14.0122 13.9913C13.8868 13.9913 13.785 14.0932 13.7859 14.2186C13.7859 14.3441 13.8877 14.4459 14.0131 14.4459C14.1386 14.4459 14.2404 14.3441 14.2404 14.2186C14.2404 14.0932 14.1386 13.9913 14.0122 13.9913" stroke="#1D2452" stroke-width="1.2" stroke-linecap="round" stroke-linejoin="round"/>
  <path d="M4.92239 13.9913C4.79693 13.9913 4.69512 14.0932 4.69603 14.2186C4.69603 14.3441 4.79784 14.4459 4.9233 14.4459C5.04875 14.4459 5.15057 14.3441 5.15057 14.2186C5.15057 14.0932 5.04875 13.9913 4.92239 13.9913" stroke="#1D2452" stroke-width="1.2" stroke-linecap="round" stroke-linejoin="round"/>
  <path d="M9.46731 13.9913C9.34186 13.9913 9.24004 14.0932 9.24095 14.2186C9.24095 14.3441 9.34277 14.4459 9.46822 14.4459C9.59367 14.4459 9.69549 14.3441 9.69549 14.2186C9.69549 14.0932 9.59367 13.9913 9.46731 13.9913" stroke="#1D2452" stroke-width="1.2" stroke-linecap="round" stroke-linejoin="round"/>
</svg>
