<svg width="8" height="8" viewBox="0 0 8 8" fill="none"
  xmlns="http://www.w3.org/2000/svg">
  <path d="M0.21967 0.21967C0.512563 -0.0732232 0.987437 -0.0732232 1.28033 0.21967L3.58 2.51934L5.87967 0.21967C6.17256 -0.0732232 6.64744 -0.0732232 6.94033 0.21967C7.23322 0.512563 7.23322 0.987437 6.94033 1.28033L4.64066 3.58L6.94033 5.87967C7.23322 6.17256 7.23322 6.64744 6.94033 6.94033C6.64744 7.23322 6.17256 7.23322 5.87967 6.94033L3.58 4.64066L1.28033 6.94033C0.987437 7.23322 0.512563 7.23322 0.21967 6.94033C-0.0732232 6.64744 -0.0732232 6.17256 0.21967 5.87967L2.51934 3.58L0.21967 1.28033C-0.0732232 0.987437 -0.0732232 0.512563 0.21967 0.21967Z" fill="#5E6A75"/>
</svg>
