<svg width="24" height="24" viewBox="0 0 24 24" fill="none"
  xmlns="http://www.w3.org/2000/svg">
  <path fill-rule="evenodd" clip-rule="evenodd" d="M16.8155 3.52324C17.479 3.14789 18.3434 3.23615 18.9177 3.80904L20.1913 5.08267C20.7664 5.65773 20.8532 6.52268 20.4776 7.18587C22.1744 10.1695 22.1732 13.8344 20.4774 16.8168C20.852 17.48 20.7635 18.3438 20.191 18.9177L18.9173 20.1913C18.3426 20.766 17.4784 20.8531 16.8153 20.4783C13.8328 22.1735 10.1671 22.1742 7.18438 20.4768C6.52098 20.8521 5.65654 20.7638 5.0823 20.191L3.80866 18.9173C3.23361 18.3423 3.14678 17.4773 3.52242 16.8141C1.82575 13.8308 1.82675 10.1663 3.52204 7.18412C3.14692 6.52075 3.23524 5.65646 3.80803 5.0823L5.08166 3.80867C5.65651 3.23382 6.52104 3.14685 7.18415 3.52203C10.1668 1.82649 13.832 1.82576 16.8155 3.52324ZM8.25989 4.64602C10.6068 3.4516 13.3928 3.45134 15.74 4.64716L14.1075 6.63029C12.7559 6.10065 11.2448 6.10058 9.89315 6.63008L8.25989 4.64602ZM6.53146 4.90651C6.53677 4.91319 6.54218 4.91975 6.54768 4.92621L8.55983 7.37053C8.33736 7.53628 8.12413 7.72014 7.92215 7.92212C7.72029 8.12399 7.53651 8.3371 7.37083 8.55943L4.92587 6.5474C4.91957 6.54204 4.91317 6.53677 4.90666 6.53159L4.88757 6.51588C4.77321 6.42179 4.76374 6.24834 4.86981 6.14185C4.86976 6.1419 4.86986 6.1418 4.86981 6.14185L6.14232 4.86933C6.24781 4.76384 6.42092 4.77216 6.51583 4.88751L6.53146 4.90651ZM4.64608 8.25977L6.6303 9.89264C6.10079 11.2439 6.10062 12.7547 6.62979 14.1061L4.6465 15.7387C3.45131 13.3917 3.45181 10.6063 4.64608 8.25977ZM4.8911 17.4802C4.90909 17.4667 4.92631 17.4525 4.94275 17.4377L7.37007 15.4395C7.53594 15.6623 7.71997 15.8757 7.92215 16.0779C8.12397 16.2797 8.33703 16.4634 8.55931 16.6291L6.51595 19.1113C6.42188 19.2257 6.24839 19.2352 6.1419 19.1292C6.14183 19.1292 6.14196 19.1293 6.1419 19.1292L4.86932 17.8567C4.76384 17.7512 4.77216 17.5781 4.88751 17.4832L4.8911 17.4802ZM10.0412 15.7921C10.0308 15.7864 10.0203 15.7809 10.0098 15.7757C9.6404 15.5808 9.2936 15.328 8.98281 15.0172C7.63579 13.6702 7.37765 11.6466 8.20839 10.0403C8.21379 10.0305 8.21895 10.0206 8.22387 10.0106C8.41879 9.64093 8.67177 9.29382 8.98281 8.98278C10.3293 7.63626 12.3519 7.37781 13.9579 8.20741C13.9689 8.2135 13.98 8.21929 13.9912 8.22479C14.3602 8.41958 14.7067 8.67225 15.0173 8.98278C16.3636 10.3291 16.6222 12.3512 15.793 13.9571C15.7866 13.9686 15.7806 13.9803 15.7748 13.992C15.5801 14.3607 15.3276 14.7069 15.0173 15.0172C13.6705 16.364 11.6474 16.6223 10.0412 15.7921ZM9.89252 17.3697L8.25994 19.3529C10.6063 20.5485 13.3925 20.5484 15.7394 19.3543L14.1061 17.3703C12.7547 17.8994 11.2438 17.8993 9.89252 17.3697ZM15.4396 16.63L17.4367 19.056C17.4529 19.0739 17.4683 19.0926 17.483 19.1123C17.483 19.1123 17.483 19.1123 17.483 19.1123M15.4396 16.63C15.6623 16.4641 15.8757 16.2801 16.0779 16.0779C16.2797 15.8761 16.4635 15.663 16.6291 15.4407L19.1113 17.484C19.2257 17.5781 19.2352 17.7515 19.1293 17.858C19.1292 17.8581 19.1294 17.858 19.1293 17.858L17.8567 19.1307C17.7512 19.2362 17.5779 19.2276 17.483 19.1123M17.3697 14.1075L19.3537 15.7407C20.5482 13.3941 20.5487 10.6084 19.3535 8.26129L17.3703 9.89387C17.8995 11.2453 17.8993 12.7562 17.3697 14.1075ZM16.63 8.56041L19.0572 6.56231C19.0737 6.5475 19.0909 6.5333 19.1089 6.51979L19.1123 6.51696C19.2277 6.42205 19.2362 6.24882 19.1307 6.14333L17.8583 4.87096C17.7518 4.76474 17.5783 4.7741 17.4842 4.88851L15.4407 7.37087C15.663 7.53653 15.8761 7.72028 16.0779 7.92212C16.2801 8.12428 16.4641 8.33772 16.63 8.56041Z" fill="white"/>
</svg>
