<svg width="24" height="24" viewBox="0 0 24 24" fill="none"
  xmlns="http://www.w3.org/2000/svg">
  <path fill-rule="evenodd" clip-rule="evenodd" d="M7.9983 3.74625C5.64994 3.74625 3.74622 5.64998 3.74622 7.99834V16.0017C3.74622 18.35 5.64994 20.2538 7.9983 20.2538H10.9995C11.4138 20.2538 11.7495 20.5895 11.7495 21.0038C11.7495 21.418 11.4138 21.7538 10.9995 21.7538H7.9983C4.82151 21.7538 2.24622 19.1785 2.24622 16.0017V7.99834C2.24622 4.82155 4.82151 2.24625 7.9983 2.24625H16.0016C19.1784 2.24625 21.7537 4.82155 21.7537 7.99834V10.9996C21.7537 11.4138 21.4179 11.7496 21.0037 11.7496C20.5895 11.7496 20.2537 11.4138 20.2537 10.9996V7.99834C20.2537 5.64998 18.35 3.74625 16.0016 3.74625H7.9983ZM10.3254 8.38482C10.6025 8.69262 10.5777 9.16684 10.2699 9.44403L8.41916 11.1107C8.13382 11.3677 7.70051 11.3676 7.41524 11.1106L6.49586 10.2823C6.18813 10.005 6.16342 9.53076 6.44068 9.22303C6.71794 8.9153 7.19218 8.8906 7.49991 9.16786L7.91739 9.544L9.26615 8.32939C9.57395 8.0522 10.0482 8.07702 10.3254 8.38482ZM12.2504 9.99917C12.2504 9.58496 12.5862 9.24917 13.0004 9.24917H17.002C17.4163 9.24917 17.752 9.58496 17.752 9.99917C17.752 10.4134 17.4163 10.7492 17.002 10.7492H13.0004C12.5862 10.7492 12.2504 10.4134 12.2504 9.99917ZM10.3254 13.3869C10.6025 13.6947 10.5777 14.1689 10.2699 14.4461L8.41916 16.1128C8.13382 16.3698 7.70051 16.3697 7.41524 16.1127L6.49586 15.2843C6.18813 15.0071 6.16342 14.5328 6.44068 14.2251C6.71794 13.9174 7.19218 13.8927 7.49991 14.1699L7.91739 14.5461L9.26615 13.3315C9.57395 13.0543 10.0482 13.0791 10.3254 13.3869ZM18.8369 13.567C18.8368 13.567 18.8369 13.567 18.8369 13.567L21.9251 15.1082C22.4262 15.358 22.7453 15.8663 22.7538 16.425C22.754 16.4329 22.7541 16.4409 22.7541 16.4489V18.2496C22.7541 18.6638 22.4183 18.9996 22.0041 18.9996C21.5899 18.9996 21.2541 18.6638 21.2541 18.2496V18.1227L20.7275 18.386V20.2505C20.7275 20.2505 20.7275 20.2506 20.7275 20.2505C20.7276 21.0461 20.2781 21.7735 19.5665 22.1291L19.0444 22.3901C18.0732 22.8755 16.93 22.8756 15.9587 22.3902L15.4365 22.1291C14.7249 21.7735 14.2754 21.0462 14.2755 20.2507C14.2755 20.2506 14.2755 20.2507 14.2755 20.2507V18.3839L13.0824 17.7879C13.082 17.7877 13.0815 17.7875 13.0811 17.7873C12.5734 17.535 12.2518 17.0173 12.2505 16.4503C12.2492 15.8828 12.569 15.3633 13.0764 15.1089L16.1601 13.567C16.16 13.5671 16.1602 13.567 16.1601 13.567C17.0024 13.1455 17.9945 13.1455 18.8369 13.567ZM15.7755 19.1332V20.2507C15.7754 20.4779 15.9038 20.6857 16.107 20.7873L16.6293 21.0484C17.1784 21.3228 17.8246 21.3228 18.3737 21.0484L18.8958 20.7874C19.099 20.6858 19.2276 20.478 19.2275 20.2508V19.136L18.8426 19.3285C18.0004 19.7486 17.0091 19.7489 16.167 19.3288L15.7755 19.1332ZM19.6556 17.2449C19.6469 17.2491 19.6382 17.2534 19.6297 17.2579L18.1724 17.9865C17.7518 18.1963 17.2571 18.1963 16.8365 17.9865L13.7545 16.4469L16.8312 14.9085C17.251 14.6984 17.7457 14.6982 18.1655 14.9084L21.25 16.4477L19.6556 17.2449ZM13.7482 16.45L13.7464 16.4469L13.4126 15.7793L13.7482 16.45Z" fill="white"/>
</svg>
