<svg width="32" height="32" viewBox="0 0 32 32" fill="none"
  xmlns="http://www.w3.org/2000/svg">
  <path fill-rule="evenodd" clip-rule="evenodd" d="M16 5C9.92428 5 5 9.92428 5 16C5 22.0757 9.92428 27 16 27C22.0757 27 27 22.0757 27 16C27 9.92428 22.0757 5 16 5ZM3 16C3 8.81972 8.81972 3 16 3C23.1803 3 29 8.81972 29 16C29 23.1803 23.1803 29 16 29C8.81972 29 3 23.1803 3 16ZM22.0404 12.6262C22.431 13.0168 22.431 13.6499 22.0404 14.0404L15.3738 20.7071C14.9833 21.0976 14.3501 21.0976 13.9596 20.7071L9.95956 16.7071C9.56904 16.3166 9.56904 15.6834 9.95956 15.2929C10.3501 14.9024 10.9832 14.9024 11.3738 15.2929L14.6667 18.5858L20.6262 12.6262C21.0168 12.2357 21.6499 12.2357 22.0404 12.6262Z" fill="#3FB34F"/>
</svg>
